<svg xmlns="http://www.w3.org/2000/svg" xmlns:xlink="http://www.w3.org/1999/xlink" width="700" zoomAndPan="magnify" viewBox="0 0 525 149.999998" height="200" preserveAspectRatio="xMidYMid meet" version="1.0"><defs><clipPath id="7023675c20"><path d="M 60 97 L 87 97 L 87 127 L 60 127 Z M 60 97 " clip-rule="nonzero"/></clipPath><clipPath id="598de3c4b2"><path d="M -5.421875 30.992188 L 96.316406 -3.394531 L 139.234375 123.574219 L 37.496094 157.964844 Z M -5.421875 30.992188 " clip-rule="nonzero"/></clipPath><clipPath id="10e1463ccf"><path d="M -5.421875 30.992188 L 96.316406 -3.394531 L 139.234375 123.574219 L 37.496094 157.964844 Z M -5.421875 30.992188 " clip-rule="nonzero"/></clipPath><clipPath id="ef22521330"><path d="M -5.421875 30.992188 L 96.316406 -3.394531 L 139.234375 123.574219 L 37.496094 157.964844 Z M -5.421875 30.992188 " clip-rule="nonzero"/></clipPath><clipPath id="b0e3c16d79"><path d="M 35 17 L 43 17 L 43 32 L 35 32 Z M 35 17 " clip-rule="nonzero"/></clipPath><clipPath id="2d5f595249"><path d="M -5.421875 30.992188 L 96.316406 -3.394531 L 139.234375 123.574219 L 37.496094 157.964844 Z M -5.421875 30.992188 " clip-rule="nonzero"/></clipPath><clipPath id="b39a09eeff"><path d="M -5.421875 30.992188 L 96.316406 -3.394531 L 139.234375 123.574219 L 37.496094 157.964844 Z M -5.421875 30.992188 " clip-rule="nonzero"/></clipPath><clipPath id="55adfa583e"><path d="M -5.421875 30.992188 L 96.316406 -3.394531 L 139.234375 123.574219 L 37.496094 157.964844 Z M -5.421875 30.992188 " clip-rule="nonzero"/></clipPath><clipPath id="bb86409ccf"><path d="M 20 29 L 34 29 L 34 39 L 20 39 Z M 20 29 " clip-rule="nonzero"/></clipPath><clipPath id="2a43651791"><path d="M -5.421875 30.992188 L 96.316406 -3.394531 L 139.234375 123.574219 L 37.496094 157.964844 Z M -5.421875 30.992188 " clip-rule="nonzero"/></clipPath><clipPath id="2d1046a5b8"><path d="M -5.421875 30.992188 L 96.316406 -3.394531 L 139.234375 123.574219 L 37.496094 157.964844 Z M -5.421875 30.992188 " clip-rule="nonzero"/></clipPath><clipPath id="e8fa277856"><path d="M -5.421875 30.992188 L 96.316406 -3.394531 L 139.234375 123.574219 L 37.496094 157.964844 Z M -5.421875 30.992188 " clip-rule="nonzero"/></clipPath><clipPath id="9d0a59e73d"><path d="M 50 18 L 60 18 L 60 32 L 50 32 Z M 50 18 " clip-rule="nonzero"/></clipPath><clipPath id="5e2a3375d7"><path d="M -5.421875 30.992188 L 96.316406 -3.394531 L 139.234375 123.574219 L 37.496094 157.964844 Z M -5.421875 30.992188 " clip-rule="nonzero"/></clipPath><clipPath id="dd52938cc8"><path d="M -5.421875 30.992188 L 96.316406 -3.394531 L 139.234375 123.574219 L 37.496094 157.964844 Z M -5.421875 30.992188 " clip-rule="nonzero"/></clipPath><clipPath id="e73823e6f6"><path d="M -5.421875 30.992188 L 96.316406 -3.394531 L 139.234375 123.574219 L 37.496094 157.964844 Z M -5.421875 30.992188 " clip-rule="nonzero"/></clipPath><clipPath id="035e769f47"><path d="M 8 5 L 125 5 L 125 145 L 8 145 Z M 8 5 " clip-rule="nonzero"/></clipPath><clipPath id="50b118f427"><path d="M -5.421875 30.992188 L 96.316406 -3.394531 L 139.234375 123.574219 L 37.496094 157.964844 Z M -5.421875 30.992188 " clip-rule="nonzero"/></clipPath><clipPath id="ff63c93c52"><path d="M -5.421875 30.992188 L 96.316406 -3.394531 L 139.234375 123.574219 L 37.496094 157.964844 Z M -5.421875 30.992188 " clip-rule="nonzero"/></clipPath><clipPath id="8d5d791b35"><path d="M -5.421875 30.992188 L 96.316406 -3.394531 L 139.234375 123.574219 L 37.496094 157.964844 Z M -5.421875 30.992188 " clip-rule="nonzero"/></clipPath></defs><path fill="#ffffff" d="M 201.371094 32.816406 L 213.074219 32.816406 L 213.074219 118.191406 L 201.371094 118.191406 L 201.371094 81.113281 L 159.167969 81.113281 L 159.167969 118.191406 L 147.574219 118.191406 L 147.574219 32.816406 L 159.167969 32.816406 L 159.167969 69.769531 L 201.371094 69.769531 Z M 201.371094 32.816406 " fill-opacity="1" fill-rule="nonzero"/><path fill="#ffffff" d="M 249.171875 58.425781 C 253.316406 58.425781 257.015625 59.140625 260.265625 60.566406 C 263.523438 61.984375 266.109375 64.28125 268.015625 67.457031 C 269.929688 70.625 270.890625 74.8125 270.890625 80.019531 L 270.890625 118.191406 L 259.421875 118.191406 L 259.421875 111.238281 C 258.359375 112.542969 256.503906 114.066406 253.859375 115.816406 C 251.222656 117.566406 247.628906 118.644531 243.078125 119.050781 C 238.523438 119.457031 234.679688 118.847656 231.546875 117.222656 C 228.421875 115.589844 226.125 113.347656 224.65625 110.503906 C 223.195312 107.660156 222.628906 104.65625 222.953125 101.488281 C 223.441406 97.582031 224.597656 94.515625 226.421875 92.285156 C 228.253906 90.046875 230.710938 88.253906 233.796875 86.910156 C 236.890625 85.566406 240.429688 84.363281 244.421875 83.300781 C 246.941406 82.65625 249.28125 82.089844 251.4375 81.597656 C 253.59375 81.109375 255.359375 80.519531 256.734375 79.832031 C 258.117188 79.144531 258.894531 78.109375 259.0625 76.722656 C 259.382812 74.777344 258.972656 73.214844 257.828125 72.035156 C 256.691406 70.847656 255.25 69.972656 253.5 69.410156 C 251.757812 68.839844 250.035156 68.636719 248.328125 68.800781 C 245.398438 68.875 242.816406 69.667969 240.578125 71.175781 C 238.335938 72.675781 236.769531 74.972656 235.875 78.066406 L 225.390625 75.863281 C 225.878906 73.34375 227.015625 70.746094 228.796875 68.066406 C 230.585938 65.378906 233.171875 63.105469 236.546875 61.238281 C 239.921875 59.363281 244.128906 58.425781 249.171875 58.425781 Z M 259.421875 93.066406 L 259.421875 90.503906 C 259.421875 90.503906 258.21875 90.832031 255.8125 91.488281 C 253.414062 92.136719 250.269531 92.949219 246.375 93.925781 C 242.875 94.8125 240.347656 95.886719 238.796875 97.144531 C 237.253906 98.40625 236.320312 99.652344 236 100.878906 C 235.675781 102.097656 235.554688 103.113281 235.640625 103.925781 C 235.796875 105.230469 236.523438 106.390625 237.828125 107.410156 C 239.128906 108.421875 241.40625 108.800781 244.65625 108.550781 C 246.695312 108.394531 248.851562 107.667969 251.125 106.363281 C 253.40625 105.0625 255.359375 103.296875 256.984375 101.066406 C 258.609375 98.828125 259.421875 96.160156 259.421875 93.066406 Z M 259.421875 93.066406 " fill-opacity="1" fill-rule="nonzero"/><path fill="#ffffff" d="M 309.1875 58.550781 C 316.09375 58.550781 321.4375 60.847656 325.21875 65.441406 C 329 70.035156 330.890625 76.5625 330.890625 85.019531 L 330.890625 118.191406 L 319.3125 118.191406 L 319.3125 86.113281 C 319.3125 80.34375 318.109375 76.238281 315.703125 73.800781 C 313.304688 71.355469 310.398438 70.128906 306.984375 70.128906 C 303.410156 70.128906 300.363281 71.292969 297.84375 73.613281 C 295.320312 75.925781 294.0625 79.847656 294.0625 85.378906 L 294.0625 118.191406 L 282.46875 118.191406 L 282.46875 59.410156 L 294.0625 59.410156 L 294.0625 65.019531 C 296.007812 62.980469 298.265625 61.390625 300.828125 60.253906 C 303.390625 59.121094 306.175781 58.550781 309.1875 58.550781 Z M 309.1875 58.550781 " fill-opacity="1" fill-rule="nonzero"/><path fill="#ffffff" d="M 384.675781 59.410156 L 396.394531 59.410156 L 396.394531 112.457031 C 396.394531 120.589844 395.070312 127.097656 392.425781 131.972656 C 389.777344 136.847656 386.320312 140.339844 382.050781 142.457031 C 377.789062 144.570312 373.136719 145.628906 368.097656 145.628906 C 362.972656 145.628906 358.148438 144.429688 353.628906 142.035156 C 349.117188 139.636719 345.601562 136.445312 343.082031 132.457031 L 352.847656 126.113281 C 354.304688 128.476562 356.378906 130.386719 359.066406 131.847656 C 361.753906 133.316406 364.636719 134.050781 367.722656 134.050781 C 372.523438 134.050781 376.550781 132.339844 379.800781 128.925781 C 383.050781 125.507812 384.675781 120.382812 384.675781 113.550781 L 384.675781 111.847656 C 382.558594 114.128906 379.996094 115.902344 376.988281 117.160156 C 373.988281 118.417969 370.574219 119.050781 366.753906 119.050781 C 361.054688 119.050781 356.175781 117.691406 352.113281 114.972656 C 348.050781 112.246094 344.917969 108.582031 342.722656 103.988281 C 340.523438 99.394531 339.425781 94.332031 339.425781 88.800781 C 339.425781 83.269531 340.523438 78.207031 342.722656 73.613281 C 344.917969 69.019531 348.050781 65.363281 352.113281 62.644531 C 356.175781 59.917969 361.054688 58.550781 366.753906 58.550781 C 370.574219 58.550781 373.988281 59.183594 376.988281 60.441406 C 379.996094 61.703125 382.558594 63.46875 384.675781 65.738281 Z M 368.207031 107.457031 C 371.707031 107.457031 374.632812 106.605469 376.988281 104.894531 C 379.351562 103.1875 381.144531 100.910156 382.363281 98.066406 C 383.582031 95.222656 384.191406 92.136719 384.191406 88.800781 C 384.191406 85.386719 383.601562 82.277344 382.425781 79.472656 C 381.246094 76.660156 379.476562 74.402344 377.113281 72.691406 C 374.757812 70.984375 371.789062 70.128906 368.207031 70.128906 C 364.632812 70.128906 361.644531 70.984375 359.238281 72.691406 C 356.839844 74.402344 355.054688 76.660156 353.878906 79.472656 C 352.699219 82.277344 352.113281 85.386719 352.113281 88.800781 C 352.113281 92.136719 352.722656 95.222656 353.941406 98.066406 C 355.160156 100.910156 356.964844 103.1875 359.363281 104.894531 C 361.769531 106.605469 364.714844 107.457031 368.207031 107.457031 Z M 368.207031 107.457031 " fill-opacity="1" fill-rule="nonzero"/><path fill="#ffffff" d="M 421.515625 32.816406 C 423.546875 32.160156 425.78125 31.957031 428.21875 32.207031 C 430.65625 32.449219 433.03125 33.015625 435.34375 33.910156 C 437.664062 34.808594 439.5625 35.984375 441.03125 37.441406 L 434.4375 45.988281 C 433.300781 44.925781 431.859375 44.214844 430.109375 43.847656 C 428.359375 43.484375 426.914062 43.503906 425.78125 43.910156 C 423.425781 44.890625 422.25 47.574219 422.25 51.957031 L 422.25 59.410156 L 432.859375 59.410156 L 432.859375 70.019531 L 422.25 70.019531 L 422.25 118.191406 L 410.53125 118.191406 L 410.53125 70.019531 L 403.703125 70.019531 L 403.703125 59.410156 L 410.53125 59.410156 L 410.53125 51.847656 C 410.53125 46.472656 411.441406 42.246094 413.265625 39.160156 C 415.097656 36.066406 417.847656 33.953125 421.515625 32.816406 Z M 421.515625 32.816406 " fill-opacity="1" fill-rule="nonzero"/><path fill="#ffffff" d="M 478.472656 59.410156 L 490.175781 59.410156 L 490.175781 118.191406 L 478.472656 118.191406 L 478.472656 112.582031 C 476.597656 114.613281 474.398438 116.203125 471.878906 117.347656 C 469.355469 118.480469 466.554688 119.050781 463.472656 119.050781 C 456.554688 119.050781 451.183594 116.734375 447.363281 112.097656 C 443.539062 107.464844 441.628906 100.957031 441.628906 92.582031 L 441.628906 59.410156 L 453.222656 59.410156 L 453.222656 91.472656 C 453.222656 97.171875 454.417969 101.261719 456.816406 103.738281 C 459.210938 106.21875 462.117188 107.457031 465.535156 107.457031 C 469.117188 107.457031 472.167969 106.28125 474.691406 103.925781 C 477.210938 101.5625 478.472656 97.65625 478.472656 92.207031 Z M 478.472656 59.410156 " fill-opacity="1" fill-rule="nonzero"/><path fill="#ffffff" d="M 501.757812 26.722656 L 513.476562 26.722656 L 513.476562 118.191406 L 501.757812 118.191406 Z M 501.757812 26.722656 " fill-opacity="1" fill-rule="nonzero"/><g clip-path="url(#7023675c20)"><g clip-path="url(#598de3c4b2)"><g clip-path="url(#10e1463ccf)"><g clip-path="url(#ef22521330)"><path fill="#ffffff" d="M 82.589844 98.671875 C 82.378906 99.019531 79.152344 104.199219 77.15625 111.019531 C 74.199219 108.257812 69.308594 104.890625 63.023438 104.859375 C 61.71875 104.851562 60.652344 105.914062 60.644531 107.21875 C 60.636719 108.527344 61.699219 109.597656 63 109.609375 C 69.515625 109.640625 74.359375 114.726562 75.949219 116.621094 C 75.609375 119.019531 75.519531 121.480469 75.800781 123.945312 C 75.964844 125.246094 77.128906 126.179688 78.433594 126.039062 C 78.605469 126.03125 78.761719 125.980469 78.921875 125.925781 C 79.953125 125.578125 80.652344 124.539062 80.519531 123.402344 C 79.28125 112.933594 86.511719 101.335938 86.582031 101.238281 C 87.277344 100.121094 86.957031 98.652344 85.84375 97.949219 C 84.730469 97.246094 83.265625 97.566406 82.566406 98.679688 Z M 82.589844 98.671875 " fill-opacity="1" fill-rule="nonzero"/></g></g></g></g><g clip-path="url(#b0e3c16d79)"><g clip-path="url(#2d5f595249)"><g clip-path="url(#b39a09eeff)"><g clip-path="url(#55adfa583e)"><path fill="#ffffff" d="M 41.367188 30.957031 C 42.601562 30.539062 43.269531 29.183594 42.851562 27.945312 L 39.890625 19.1875 C 39.472656 17.949219 38.121094 17.277344 36.886719 17.695312 C 35.652344 18.113281 34.984375 19.46875 35.402344 20.707031 L 38.363281 29.464844 C 38.78125 30.703125 40.132812 31.375 41.367188 30.957031 Z M 41.367188 30.957031 " fill-opacity="1" fill-rule="nonzero"/></g></g></g></g><g clip-path="url(#bb86409ccf)"><g clip-path="url(#2a43651791)"><g clip-path="url(#2d1046a5b8)"><g clip-path="url(#e8fa277856)"><path fill="#ffffff" d="M 30.433594 38.265625 C 31.035156 38.5625 31.664062 38.574219 32.246094 38.378906 C 32.832031 38.179688 33.316406 37.765625 33.621094 37.1875 C 34.199219 36.011719 33.71875 34.59375 32.546875 34.011719 L 24.28125 29.910156 C 23.109375 29.324219 21.695312 29.804688 21.117188 30.976562 C 20.539062 32.152344 21.019531 33.570312 22.191406 34.152344 L 30.457031 38.257812 Z M 30.433594 38.265625 " fill-opacity="1" fill-rule="nonzero"/></g></g></g></g><g clip-path="url(#9d0a59e73d)"><g clip-path="url(#5e2a3375d7)"><g clip-path="url(#dd52938cc8)"><g clip-path="url(#e73823e6f6)"><path fill="#ffffff" d="M 53.589844 31.164062 C 54.175781 30.964844 54.660156 30.550781 54.964844 29.972656 L 59.042969 21.695312 C 59.621094 20.519531 59.144531 19.101562 57.972656 18.519531 C 56.800781 17.9375 55.386719 18.417969 54.804688 19.589844 L 50.726562 27.867188 C 50.148438 29.042969 50.628906 30.460938 51.800781 31.042969 C 52.402344 31.339844 53.03125 31.355469 53.613281 31.15625 Z M 53.589844 31.164062 " fill-opacity="1" fill-rule="nonzero"/></g></g></g></g><g clip-path="url(#035e769f47)"><g clip-path="url(#50b118f427)"><g clip-path="url(#ff63c93c52)"><g clip-path="url(#8d5d791b35)"><path fill="#ffffff" d="M 109.988281 74.308594 C 106.566406 62.699219 91.546875 12.941406 84.308594 7.660156 C 79.855469 4.402344 73.75 4.234375 69.132812 7.222656 C 65.1875 9.761719 63.386719 13.980469 64.324219 18.453125 C 65.671875 24.949219 72.171875 42.996094 75.46875 52.015625 C 73.089844 51.414062 70.765625 51.421875 68.445312 52.03125 C 63.394531 53.359375 60 57.292969 58.367188 59.574219 C 53.40625 58.21875 49.28125 58.660156 46.113281 60.90625 C 43.230469 62.960938 41.816406 66.097656 41.105469 68.722656 C 38.972656 66.484375 36.023438 62.941406 33.007812 58.015625 C 28.933594 51.363281 21.953125 43.664062 15.625 43.949219 C 13.675781 44.027344 10.972656 44.917969 9.164062 48.589844 C 4.195312 58.671875 22.738281 84.160156 27.015625 88.308594 C 28.726562 89.964844 30.804688 95.882812 32.992188 102.140625 C 36.636719 112.550781 41.632812 126.816406 49.941406 136.75 C 57.28125 145.507812 69.144531 147.316406 83.355469 141.859375 C 87.785156 140.164062 92.632812 138.675781 99.085938 137.046875 C 100.050781 136.792969 101.007812 136.519531 101.90625 136.21875 C 112.074219 132.78125 118.21875 125.4375 122.695312 111.605469 C 128.671875 93.179688 113.128906 77.3125 109.953125 74.347656 Z M 68.953125 17.492188 C 68.214844 13.90625 70.617188 11.914062 71.699219 11.195312 C 74.121094 9.625 78.230469 9.0625 81.519531 11.464844 C 85.738281 14.554688 97.136719 47.902344 104.546875 72.636719 C 101.015625 72.175781 95.378906 71.773438 88.90625 72.382812 C 86.542969 64.277344 82.410156 56.566406 81.757812 55.382812 C 80.902344 53.0625 70.582031 25.421875 68.945312 17.46875 Z M 69.667969 56.609375 C 72.246094 55.9375 75.003906 56.484375 77.890625 58.144531 C 78.914062 60.054688 82.167969 66.429688 84.171875 73.027344 C 82.890625 73.234375 81.582031 73.503906 80.265625 73.820312 C 76.199219 74.820312 72.609375 75.808594 69.4375 76.855469 C 66.394531 70.960938 63.386719 64.953125 62.121094 62.46875 C 63.269531 60.828125 65.921875 57.574219 69.664062 56.585938 Z M 48.914062 64.753906 C 50.976562 63.304688 53.949219 63.152344 57.75 64.324219 C 58.875 66.554688 61.882812 72.558594 64.957031 78.546875 C 60.632812 80.40625 57.535156 82.558594 55.878906 85.351562 C 55.195312 86.511719 54.796875 87.773438 54.675781 89.042969 C 50.644531 86.742188 46.757812 78.125 45.164062 73.195312 C 45.25 71.886719 45.71875 66.988281 48.90625 64.730469 Z M 118.238281 110.101562 C 113.183594 125.632812 106.46875 130.261719 97.945312 132.414062 C 93.152344 133.632812 89.210938 134.765625 85.664062 135.960938 C 84.296875 136.425781 82.957031 136.902344 81.675781 137.410156 C 73.058594 140.699219 61.191406 142.730469 53.578125 133.664062 C 45.824219 124.417969 41.179688 111.191406 37.460938 100.558594 C 34.757812 92.867188 32.835938 87.320312 30.304688 84.863281 C 24.25 79.011719 10.421875 56.742188 13.402344 50.695312 C 14.351562 48.765625 15.40625 48.710938 15.828125 48.695312 C 19.132812 48.554688 24.769531 53.625 28.964844 60.484375 C 34.074219 68.867188 39.042969 73.507812 40.730469 74.945312 C 41.992188 78.679688 47.34375 93.253906 55.640625 94.335938 C 56.625 96.4375 58.222656 98.054688 60.398438 99.023438 C 65.898438 101.457031 73.5625 99.339844 77.386719 97.347656 C 78.34375 96.847656 86.761719 92.597656 89.398438 97 C 89.980469 97.980469 91.167969 98.382812 92.199219 98.03125 C 92.355469 97.980469 92.515625 97.925781 92.65625 97.828125 C 93.777344 97.148438 94.136719 95.699219 93.457031 94.574219 C 89.746094 88.402344 81.589844 89.804688 75.171875 93.152344 C 72.152344 94.726562 65.960938 96.316406 62.289062 94.699219 C 60.847656 94.058594 59.972656 93.023438 59.550781 91.410156 C 59.191406 90.050781 59.304688 88.910156 59.960938 87.808594 C 62.457031 83.578125 72.191406 80.714844 81.367188 78.492188 C 93.058594 75.644531 104.09375 77.355469 106.785156 77.851562 C 109.375 80.335938 123.289062 94.574219 118.222656 110.132812 Z M 118.238281 110.101562 " fill-opacity="1" fill-rule="nonzero"/></g></g></g></g></svg>