<svg xmlns="http://www.w3.org/2000/svg" xmlns:xlink="http://www.w3.org/1999/xlink" width="700" zoomAndPan="magnify" viewBox="0 0 525 149.999998" height="200" preserveAspectRatio="xMidYMid meet" version="1.0"><defs><g/><clipPath id="d118a999a8"><path d="M 139 8 L 519.839844 8 L 519.839844 148 L 139 148 Z M 139 8 " clip-rule="nonzero"/></clipPath><clipPath id="42f852c698"><rect x="0" width="381" y="0" height="140"/></clipPath><clipPath id="14f3da5269"><path d="M 60 97 L 87 97 L 87 127 L 60 127 Z M 60 97 " clip-rule="nonzero"/></clipPath><clipPath id="c36347b46f"><path d="M -5.421875 30.992188 L 96.316406 -3.394531 L 139.234375 123.574219 L 37.496094 157.964844 Z M -5.421875 30.992188 " clip-rule="nonzero"/></clipPath><clipPath id="c65e95f56b"><path d="M -5.421875 30.992188 L 96.316406 -3.394531 L 139.234375 123.574219 L 37.496094 157.964844 Z M -5.421875 30.992188 " clip-rule="nonzero"/></clipPath><clipPath id="844b215ab3"><path d="M -5.421875 30.992188 L 96.316406 -3.394531 L 139.234375 123.574219 L 37.496094 157.964844 Z M -5.421875 30.992188 " clip-rule="nonzero"/></clipPath><clipPath id="da34cfe4df"><path d="M 35 17 L 43 17 L 43 32 L 35 32 Z M 35 17 " clip-rule="nonzero"/></clipPath><clipPath id="e40da23f43"><path d="M -5.421875 30.992188 L 96.316406 -3.394531 L 139.234375 123.574219 L 37.496094 157.964844 Z M -5.421875 30.992188 " clip-rule="nonzero"/></clipPath><clipPath id="153d53ded3"><path d="M -5.421875 30.992188 L 96.316406 -3.394531 L 139.234375 123.574219 L 37.496094 157.964844 Z M -5.421875 30.992188 " clip-rule="nonzero"/></clipPath><clipPath id="a328fc31b1"><path d="M -5.421875 30.992188 L 96.316406 -3.394531 L 139.234375 123.574219 L 37.496094 157.964844 Z M -5.421875 30.992188 " clip-rule="nonzero"/></clipPath><clipPath id="be68042b84"><path d="M 20 29 L 34 29 L 34 39 L 20 39 Z M 20 29 " clip-rule="nonzero"/></clipPath><clipPath id="618dbc2b20"><path d="M -5.421875 30.992188 L 96.316406 -3.394531 L 139.234375 123.574219 L 37.496094 157.964844 Z M -5.421875 30.992188 " clip-rule="nonzero"/></clipPath><clipPath id="239343acc2"><path d="M -5.421875 30.992188 L 96.316406 -3.394531 L 139.234375 123.574219 L 37.496094 157.964844 Z M -5.421875 30.992188 " clip-rule="nonzero"/></clipPath><clipPath id="fd83f0fcb4"><path d="M -5.421875 30.992188 L 96.316406 -3.394531 L 139.234375 123.574219 L 37.496094 157.964844 Z M -5.421875 30.992188 " clip-rule="nonzero"/></clipPath><clipPath id="c83f175ac3"><path d="M 50 18 L 60 18 L 60 32 L 50 32 Z M 50 18 " clip-rule="nonzero"/></clipPath><clipPath id="caf5c77d47"><path d="M -5.421875 30.992188 L 96.316406 -3.394531 L 139.234375 123.574219 L 37.496094 157.964844 Z M -5.421875 30.992188 " clip-rule="nonzero"/></clipPath><clipPath id="9e3c55a808"><path d="M -5.421875 30.992188 L 96.316406 -3.394531 L 139.234375 123.574219 L 37.496094 157.964844 Z M -5.421875 30.992188 " clip-rule="nonzero"/></clipPath><clipPath id="815ee7e26e"><path d="M -5.421875 30.992188 L 96.316406 -3.394531 L 139.234375 123.574219 L 37.496094 157.964844 Z M -5.421875 30.992188 " clip-rule="nonzero"/></clipPath><clipPath id="94a77e0f66"><path d="M 8 5 L 125 5 L 125 145 L 8 145 Z M 8 5 " clip-rule="nonzero"/></clipPath><clipPath id="799f7d78a1"><path d="M -5.421875 30.992188 L 96.316406 -3.394531 L 139.234375 123.574219 L 37.496094 157.964844 Z M -5.421875 30.992188 " clip-rule="nonzero"/></clipPath><clipPath id="410e3ec0af"><path d="M -5.421875 30.992188 L 96.316406 -3.394531 L 139.234375 123.574219 L 37.496094 157.964844 Z M -5.421875 30.992188 " clip-rule="nonzero"/></clipPath><clipPath id="3b33c746a8"><path d="M -5.421875 30.992188 L 96.316406 -3.394531 L 139.234375 123.574219 L 37.496094 157.964844 Z M -5.421875 30.992188 " clip-rule="nonzero"/></clipPath><clipPath id="f73f8eb844"><rect x="0" width="520" y="0" height="150"/></clipPath></defs><g transform="matrix(1, 0, 0, 1, 0, -0.000000000000007527)"><g clip-path="url(#f73f8eb844)"><g clip-path="url(#d118a999a8)"><g transform="matrix(1, 0, 0, 1, 139, 8)"><g clip-path="url(#42f852c698)"><g fill="#000000" fill-opacity="1"><g transform="translate(0.652545, 110.192642)"><g><path d="M 61.71875 -85.375 L 73.421875 -85.375 L 73.421875 0 L 61.71875 0 L 61.71875 -37.078125 L 19.515625 -37.078125 L 19.515625 0 L 7.921875 0 L 7.921875 -85.375 L 19.515625 -85.375 L 19.515625 -48.421875 L 61.71875 -48.421875 Z M 61.71875 -85.375 "/></g></g></g><g fill="#000000" fill-opacity="1"><g transform="translate(80.782688, 110.192642)"><g><path d="M 29.390625 -59.765625 C 33.535156 -59.765625 37.234375 -59.050781 40.484375 -57.625 C 43.742188 -56.207031 46.328125 -53.910156 48.234375 -50.734375 C 50.148438 -47.566406 51.109375 -43.378906 51.109375 -38.171875 L 51.109375 0 L 39.640625 0 L 39.640625 -6.953125 C 38.578125 -5.648438 36.722656 -4.125 34.078125 -2.375 C 31.441406 -0.625 27.847656 0.453125 23.296875 0.859375 C 18.742188 1.265625 14.898438 0.65625 11.765625 -0.96875 C 8.640625 -2.601562 6.34375 -4.84375 4.875 -7.6875 C 3.414062 -10.53125 2.847656 -13.535156 3.171875 -16.703125 C 3.660156 -20.609375 4.816406 -23.675781 6.640625 -25.90625 C 8.472656 -28.144531 10.929688 -29.9375 14.015625 -31.28125 C 17.109375 -32.625 20.648438 -33.828125 24.640625 -34.890625 C 27.160156 -35.535156 29.5 -36.101562 31.65625 -36.59375 C 33.8125 -37.082031 35.578125 -37.671875 36.953125 -38.359375 C 38.335938 -39.046875 39.113281 -40.082031 39.28125 -41.46875 C 39.601562 -43.414062 39.191406 -44.976562 38.046875 -46.15625 C 36.910156 -47.34375 35.46875 -48.21875 33.71875 -48.78125 C 31.976562 -49.351562 30.253906 -49.554688 28.546875 -49.390625 C 25.617188 -49.316406 23.035156 -48.523438 20.796875 -47.015625 C 18.554688 -45.515625 16.988281 -43.21875 16.09375 -40.125 L 5.609375 -42.328125 C 6.097656 -44.847656 7.234375 -47.445312 9.015625 -50.125 C 10.804688 -52.8125 13.390625 -55.085938 16.765625 -56.953125 C 20.140625 -58.828125 24.347656 -59.765625 29.390625 -59.765625 Z M 39.640625 -25.125 L 39.640625 -27.6875 C 39.640625 -27.6875 38.4375 -27.359375 36.03125 -26.703125 C 33.632812 -26.054688 30.488281 -25.242188 26.59375 -24.265625 C 23.09375 -23.378906 20.566406 -22.304688 19.015625 -21.046875 C 17.472656 -19.785156 16.539062 -18.539062 16.21875 -17.3125 C 15.894531 -16.09375 15.773438 -15.078125 15.859375 -14.265625 C 16.015625 -12.960938 16.742188 -11.800781 18.046875 -10.78125 C 19.347656 -9.769531 21.625 -9.390625 24.875 -9.640625 C 26.914062 -9.796875 29.070312 -10.523438 31.34375 -11.828125 C 33.625 -13.128906 35.578125 -14.894531 37.203125 -17.125 C 38.828125 -19.363281 39.640625 -22.03125 39.640625 -25.125 Z M 39.640625 -25.125 "/></g></g></g><g fill="#000000" fill-opacity="1"><g transform="translate(137.373847, 110.192642)"><g><path d="M 32.8125 -59.640625 C 39.71875 -59.640625 45.0625 -57.34375 48.84375 -52.75 C 52.625 -48.15625 54.515625 -41.628906 54.515625 -33.171875 L 54.515625 0 L 42.9375 0 L 42.9375 -32.078125 C 42.9375 -37.847656 41.734375 -41.953125 39.328125 -44.390625 C 36.929688 -46.835938 34.023438 -48.0625 30.609375 -48.0625 C 27.035156 -48.0625 23.988281 -46.898438 21.46875 -44.578125 C 18.945312 -42.265625 17.6875 -38.34375 17.6875 -32.8125 L 17.6875 0 L 6.09375 0 L 6.09375 -58.78125 L 17.6875 -58.78125 L 17.6875 -53.171875 C 19.632812 -55.210938 21.890625 -56.800781 24.453125 -57.9375 C 27.015625 -59.070312 29.800781 -59.640625 32.8125 -59.640625 Z M 32.8125 -59.640625 "/></g></g></g><g fill="#000000" fill-opacity="1"><g transform="translate(197.379986, 110.192642)"><g><path d="M 48.296875 -58.78125 L 60.015625 -58.78125 L 60.015625 -5.734375 C 60.015625 2.398438 58.691406 8.90625 56.046875 13.78125 C 53.398438 18.65625 49.941406 22.148438 45.671875 24.265625 C 41.410156 26.378906 36.757812 27.4375 31.71875 27.4375 C 26.59375 27.4375 21.769531 26.238281 17.25 23.84375 C 12.738281 21.445312 9.222656 18.253906 6.703125 14.265625 L 16.46875 7.921875 C 17.925781 10.285156 20 12.195312 22.6875 13.65625 C 25.375 15.125 28.257812 15.859375 31.34375 15.859375 C 36.144531 15.859375 40.171875 14.148438 43.421875 10.734375 C 46.671875 7.316406 48.296875 2.191406 48.296875 -4.640625 L 48.296875 -6.34375 C 46.179688 -4.0625 43.617188 -2.289062 40.609375 -1.03125 C 37.609375 0.226562 34.195312 0.859375 30.375 0.859375 C 24.675781 0.859375 19.796875 -0.5 15.734375 -3.21875 C 11.671875 -5.945312 8.539062 -9.609375 6.34375 -14.203125 C 4.144531 -18.796875 3.046875 -23.859375 3.046875 -29.390625 C 3.046875 -34.921875 4.144531 -39.984375 6.34375 -44.578125 C 8.539062 -49.171875 11.671875 -52.828125 15.734375 -55.546875 C 19.796875 -58.273438 24.675781 -59.640625 30.375 -59.640625 C 34.195312 -59.640625 37.609375 -59.007812 40.609375 -57.75 C 43.617188 -56.488281 46.179688 -54.722656 48.296875 -52.453125 Z M 31.828125 -10.734375 C 35.328125 -10.734375 38.253906 -11.585938 40.609375 -13.296875 C 42.972656 -15.003906 44.765625 -17.28125 45.984375 -20.125 C 47.203125 -22.96875 47.8125 -26.054688 47.8125 -29.390625 C 47.8125 -32.804688 47.222656 -35.914062 46.046875 -38.71875 C 44.867188 -41.53125 43.097656 -43.789062 40.734375 -45.5 C 38.378906 -47.207031 35.410156 -48.0625 31.828125 -48.0625 C 28.253906 -48.0625 25.265625 -47.207031 22.859375 -45.5 C 20.460938 -43.789062 18.675781 -41.53125 17.5 -38.71875 C 16.320312 -35.914062 15.734375 -32.804688 15.734375 -29.390625 C 15.734375 -26.054688 16.34375 -22.96875 17.5625 -20.125 C 18.78125 -17.28125 20.585938 -15.003906 22.984375 -13.296875 C 25.390625 -11.585938 28.335938 -10.734375 31.828125 -10.734375 Z M 31.828125 -10.734375 "/></g></g></g><g fill="#000000" fill-opacity="1"><g transform="translate(262.87449, 110.192642)"><g><path d="M 19.640625 -85.375 C 21.671875 -86.03125 23.90625 -86.234375 26.34375 -85.984375 C 28.78125 -85.742188 31.15625 -85.175781 33.46875 -84.28125 C 35.789062 -83.382812 37.6875 -82.207031 39.15625 -80.75 L 32.5625 -72.203125 C 31.425781 -73.265625 29.984375 -73.976562 28.234375 -74.34375 C 26.484375 -74.707031 25.039062 -74.6875 23.90625 -74.28125 C 21.550781 -73.300781 20.375 -70.617188 20.375 -66.234375 L 20.375 -58.78125 L 30.984375 -58.78125 L 30.984375 -48.171875 L 20.375 -48.171875 L 20.375 0 L 8.65625 0 L 8.65625 -48.171875 L 1.828125 -48.171875 L 1.828125 -58.78125 L 8.65625 -58.78125 L 8.65625 -66.34375 C 8.65625 -71.71875 9.566406 -75.945312 11.390625 -79.03125 C 13.222656 -82.125 15.972656 -84.238281 19.640625 -85.375 Z M 19.640625 -85.375 "/></g></g></g><g fill="#000000" fill-opacity="1"><g transform="translate(297.146278, 110.192642)"><g><path d="M 42.328125 -58.78125 L 54.03125 -58.78125 L 54.03125 0 L 42.328125 0 L 42.328125 -5.609375 C 40.453125 -3.578125 38.253906 -1.988281 35.734375 -0.84375 C 33.210938 0.289062 30.410156 0.859375 27.328125 0.859375 C 20.410156 0.859375 15.039062 -1.457031 11.21875 -6.09375 C 7.394531 -10.726562 5.484375 -17.234375 5.484375 -25.609375 L 5.484375 -58.78125 L 17.078125 -58.78125 L 17.078125 -26.71875 C 17.078125 -21.019531 18.273438 -16.929688 20.671875 -14.453125 C 23.066406 -11.972656 25.972656 -10.734375 29.390625 -10.734375 C 32.972656 -10.734375 36.023438 -11.910156 38.546875 -14.265625 C 41.066406 -16.628906 42.328125 -20.535156 42.328125 -25.984375 Z M 42.328125 -58.78125 "/></g></g></g><g fill="#000000" fill-opacity="1"><g transform="translate(357.27436, 110.192642)"><g><path d="M 5.484375 -91.46875 L 17.203125 -91.46875 L 17.203125 0 L 5.484375 0 Z M 5.484375 -91.46875 "/></g></g></g></g></g></g><g clip-path="url(#14f3da5269)"><g clip-path="url(#c36347b46f)"><g clip-path="url(#c65e95f56b)"><g clip-path="url(#844b215ab3)"><path fill="#000000" d="M 82.589844 98.671875 C 82.378906 99.019531 79.152344 104.199219 77.15625 111.019531 C 74.199219 108.257812 69.308594 104.890625 63.023438 104.859375 C 61.71875 104.851562 60.652344 105.914062 60.644531 107.21875 C 60.636719 108.527344 61.699219 109.597656 63 109.609375 C 69.515625 109.640625 74.359375 114.726562 75.949219 116.621094 C 75.609375 119.019531 75.519531 121.480469 75.800781 123.945312 C 75.964844 125.246094 77.128906 126.179688 78.433594 126.039062 C 78.605469 126.03125 78.761719 125.980469 78.921875 125.925781 C 79.953125 125.578125 80.652344 124.539062 80.519531 123.402344 C 79.28125 112.933594 86.511719 101.335938 86.582031 101.238281 C 87.277344 100.121094 86.957031 98.652344 85.84375 97.949219 C 84.730469 97.246094 83.265625 97.566406 82.566406 98.679688 Z M 82.589844 98.671875 " fill-opacity="1" fill-rule="nonzero"/></g></g></g></g><g clip-path="url(#da34cfe4df)"><g clip-path="url(#e40da23f43)"><g clip-path="url(#153d53ded3)"><g clip-path="url(#a328fc31b1)"><path fill="#000000" d="M 41.367188 30.957031 C 42.601562 30.539062 43.269531 29.183594 42.851562 27.945312 L 39.890625 19.1875 C 39.472656 17.949219 38.121094 17.277344 36.886719 17.695312 C 35.652344 18.113281 34.984375 19.46875 35.402344 20.707031 L 38.363281 29.464844 C 38.78125 30.703125 40.132812 31.375 41.367188 30.957031 Z M 41.367188 30.957031 " fill-opacity="1" fill-rule="nonzero"/></g></g></g></g><g clip-path="url(#be68042b84)"><g clip-path="url(#618dbc2b20)"><g clip-path="url(#239343acc2)"><g clip-path="url(#fd83f0fcb4)"><path fill="#000000" d="M 30.433594 38.265625 C 31.035156 38.5625 31.664062 38.574219 32.246094 38.378906 C 32.832031 38.179688 33.316406 37.765625 33.621094 37.1875 C 34.199219 36.011719 33.71875 34.59375 32.546875 34.011719 L 24.28125 29.910156 C 23.109375 29.324219 21.695312 29.804688 21.117188 30.976562 C 20.539062 32.152344 21.019531 33.570312 22.191406 34.152344 L 30.457031 38.257812 Z M 30.433594 38.265625 " fill-opacity="1" fill-rule="nonzero"/></g></g></g></g><g clip-path="url(#c83f175ac3)"><g clip-path="url(#caf5c77d47)"><g clip-path="url(#9e3c55a808)"><g clip-path="url(#815ee7e26e)"><path fill="#000000" d="M 53.589844 31.164062 C 54.175781 30.964844 54.660156 30.550781 54.964844 29.972656 L 59.042969 21.695312 C 59.621094 20.519531 59.144531 19.101562 57.972656 18.519531 C 56.800781 17.9375 55.386719 18.417969 54.804688 19.589844 L 50.726562 27.867188 C 50.148438 29.042969 50.628906 30.460938 51.800781 31.042969 C 52.402344 31.339844 53.03125 31.355469 53.613281 31.15625 Z M 53.589844 31.164062 " fill-opacity="1" fill-rule="nonzero"/></g></g></g></g><g clip-path="url(#94a77e0f66)"><g clip-path="url(#799f7d78a1)"><g clip-path="url(#410e3ec0af)"><g clip-path="url(#3b33c746a8)"><path fill="#000000" d="M 109.988281 74.308594 C 106.566406 62.699219 91.546875 12.941406 84.308594 7.660156 C 79.855469 4.402344 73.75 4.234375 69.132812 7.222656 C 65.1875 9.761719 63.386719 13.980469 64.324219 18.453125 C 65.671875 24.949219 72.171875 42.996094 75.46875 52.015625 C 73.089844 51.414062 70.765625 51.421875 68.445312 52.03125 C 63.394531 53.359375 60 57.292969 58.367188 59.574219 C 53.40625 58.21875 49.28125 58.660156 46.113281 60.90625 C 43.230469 62.960938 41.816406 66.097656 41.105469 68.722656 C 38.972656 66.484375 36.023438 62.941406 33.007812 58.015625 C 28.933594 51.363281 21.953125 43.664062 15.625 43.949219 C 13.675781 44.027344 10.972656 44.917969 9.164062 48.589844 C 4.195312 58.671875 22.738281 84.160156 27.015625 88.308594 C 28.726562 89.964844 30.804688 95.882812 32.992188 102.140625 C 36.636719 112.550781 41.632812 126.816406 49.941406 136.75 C 57.28125 145.507812 69.144531 147.316406 83.355469 141.859375 C 87.785156 140.164062 92.632812 138.675781 99.085938 137.046875 C 100.050781 136.792969 101.007812 136.519531 101.90625 136.21875 C 112.074219 132.78125 118.21875 125.4375 122.695312 111.605469 C 128.671875 93.179688 113.128906 77.3125 109.953125 74.347656 Z M 68.953125 17.492188 C 68.214844 13.90625 70.617188 11.914062 71.699219 11.195312 C 74.121094 9.625 78.230469 9.0625 81.519531 11.464844 C 85.738281 14.554688 97.136719 47.902344 104.546875 72.636719 C 101.015625 72.175781 95.378906 71.773438 88.90625 72.382812 C 86.542969 64.277344 82.410156 56.566406 81.757812 55.382812 C 80.902344 53.0625 70.582031 25.421875 68.945312 17.46875 Z M 69.667969 56.609375 C 72.246094 55.9375 75.003906 56.484375 77.890625 58.144531 C 78.914062 60.054688 82.167969 66.429688 84.171875 73.027344 C 82.890625 73.234375 81.582031 73.503906 80.265625 73.820312 C 76.199219 74.820312 72.609375 75.808594 69.4375 76.855469 C 66.394531 70.960938 63.386719 64.953125 62.121094 62.46875 C 63.269531 60.828125 65.921875 57.574219 69.664062 56.585938 Z M 48.914062 64.753906 C 50.976562 63.304688 53.949219 63.152344 57.75 64.324219 C 58.875 66.554688 61.882812 72.558594 64.957031 78.546875 C 60.632812 80.40625 57.535156 82.558594 55.878906 85.351562 C 55.195312 86.511719 54.796875 87.773438 54.675781 89.042969 C 50.644531 86.742188 46.757812 78.125 45.164062 73.195312 C 45.25 71.886719 45.71875 66.988281 48.90625 64.730469 Z M 118.238281 110.101562 C 113.183594 125.632812 106.46875 130.261719 97.945312 132.414062 C 93.152344 133.632812 89.210938 134.765625 85.664062 135.960938 C 84.296875 136.425781 82.957031 136.902344 81.675781 137.410156 C 73.058594 140.699219 61.191406 142.730469 53.578125 133.664062 C 45.824219 124.417969 41.179688 111.191406 37.460938 100.558594 C 34.757812 92.867188 32.835938 87.320312 30.304688 84.863281 C 24.25 79.011719 10.421875 56.742188 13.402344 50.695312 C 14.351562 48.765625 15.40625 48.710938 15.828125 48.695312 C 19.132812 48.554688 24.769531 53.625 28.964844 60.484375 C 34.074219 68.867188 39.042969 73.507812 40.730469 74.945312 C 41.992188 78.679688 47.34375 93.253906 55.640625 94.335938 C 56.625 96.4375 58.222656 98.054688 60.398438 99.023438 C 65.898438 101.457031 73.5625 99.339844 77.386719 97.347656 C 78.34375 96.847656 86.761719 92.597656 89.398438 97 C 89.980469 97.980469 91.167969 98.382812 92.199219 98.03125 C 92.355469 97.980469 92.515625 97.925781 92.65625 97.828125 C 93.777344 97.148438 94.136719 95.699219 93.457031 94.574219 C 89.746094 88.402344 81.589844 89.804688 75.171875 93.152344 C 72.152344 94.726562 65.960938 96.316406 62.289062 94.699219 C 60.847656 94.058594 59.972656 93.023438 59.550781 91.410156 C 59.191406 90.050781 59.304688 88.910156 59.960938 87.808594 C 62.457031 83.578125 72.191406 80.714844 81.367188 78.492188 C 93.058594 75.644531 104.09375 77.355469 106.785156 77.851562 C 109.375 80.335938 123.289062 94.574219 118.222656 110.132812 Z M 118.238281 110.101562 " fill-opacity="1" fill-rule="nonzero"/></g></g></g></g></g></g></svg>